<?xml version="1.0" encoding="UTF-8" standalone="no"?>
<svg
   xmlns:dc="http://purl.org/dc/elements/1.1/"
   xmlns:cc="http://creativecommons.org/ns#"
   xmlns:rdf="http://www.w3.org/1999/02/22-rdf-syntax-ns#"
   xmlns:svg="http://www.w3.org/2000/svg"
   xmlns="http://www.w3.org/2000/svg"
   xmlns:sodipodi="http://sodipodi.sourceforge.net/DTD/sodipodi-0.dtd"
   xmlns:inkscape="http://www.inkscape.org/namespaces/inkscape"
   width="1024"
   height="1024"
   viewBox="0 0 1024 1024"
   fill="none"
   version="1.1"
   id="svg10"
   sodipodi:docname="scalable.svg"
   inkscape:version="1.0 (4035a4fb49, 2020-05-01)">
  <metadata
     id="metadata16">
    <rdf:RDF>
      <cc:Work
         rdf:about="">
        <dc:format>image/svg+xml</dc:format>
        <dc:type
           rdf:resource="http://purl.org/dc/dcmitype/StillImage" />
        <dc:title></dc:title>
      </cc:Work>
    </rdf:RDF>
  </metadata>
  <defs
     id="defs14" />
  <sodipodi:namedview
     inkscape:pagecheckerboard="true"
     inkscape:document-rotation="0"
     pagecolor="#ffffff"
     bordercolor="#666666"
     borderopacity="1"
     objecttolerance="10"
     gridtolerance="10"
     guidetolerance="10"
     inkscape:pageopacity="0"
     inkscape:pageshadow="2"
     inkscape:window-width="1920"
     inkscape:window-height="1043"
     id="namedview12"
     showgrid="false"
     inkscape:zoom="0.4921875"
     inkscape:cx="561.18591"
     inkscape:cy="366.81016"
     inkscape:window-x="640"
     inkscape:window-y="0"
     inkscape:window-maximized="1"
     inkscape:current-layer="layer2" />
  <g
     sodipodi:insensitive="true"
     style="display:inline"
     inkscape:groupmode="layer"
     id="layer2"
     inkscape:label="green background">
    <rect
       ry="225"
       y="0"
       x="0"
       height="1024"
       width="1024"
       id="rect41"
       style="fill:#0dbd8b;fill-opacity:1;stroke:none;stroke-width:3;stroke-linecap:round" />
  </g>
  <g
     sodipodi:insensitive="true"
     inkscape:label="whites swirls"
     id="g880"
     inkscape:groupmode="layer">
    <path
       style="fill:#ffffff;fill-opacity:1"
       id="path872"
       fill="#0dbd8b"
       d="m 414,204 c 0,-23.196 18.804,-42 42,-42 154.64,0 280,125.36 280,280 0,23.196 -18.804,42 -42,42 -23.196,0 -42,-18.804 -42,-42 0,-108.248 -87.752,-196 -196,-196 -23.196,0 -42,-18.804 -42,-42 z"
       clip-rule="evenodd"
       fill-rule="evenodd" />
    <path
       style="fill:#ffffff;fill-opacity:1"
       id="path874"
       fill="#0dbd8b"
       d="m 610,820 c 0,23.196 -18.804,42 -42,42 -154.64,0 -280,-125.36 -280,-280 0,-23.196 18.804,-42 42,-42 23.196,0 42,18.804 42,42 0,108.248 87.752,196 196,196 23.196,0 42,18.804 42,42 z"
       clip-rule="evenodd"
       fill-rule="evenodd" />
    <path
       style="fill:#ffffff;fill-opacity:1"
       id="path876"
       fill="#0dbd8b"
       d="m 204,610 c -23.196,0 -42,-18.804 -42,-42 0,-154.64 125.36,-280 280,-280 23.196,0 42,18.804 42,42 0,23.196 -18.804,42 -42,42 -108.248,0 -196,87.752 -196,196 0,23.196 -18.804,42 -42,42 z"
       clip-rule="evenodd"
       fill-rule="evenodd" />
    <path
       style="fill:#ffffff;fill-opacity:1"
       id="path878"
       fill="#0dbd8b"
       d="m 820,414 c 23.196,0 42,18.804 42,42 0,154.64 -125.36,280 -280,280 -23.196,0 -42,-18.804 -42,-42 0,-23.196 18.804,-42 42,-42 108.248,0 196,-87.752 196,-196 0,-23.196 18.804,-42 42,-42 z"
       clip-rule="evenodd"
       fill-rule="evenodd" />
  </g>
</svg>
