<?xml version="1.0" encoding="UTF-8" standalone="no"?>
<svg
   xmlns:dc="http://purl.org/dc/elements/1.1/"
   xmlns:cc="http://creativecommons.org/ns#"
   xmlns:rdf="http://www.w3.org/1999/02/22-rdf-syntax-ns#"
   xmlns:svg="http://www.w3.org/2000/svg"
   xmlns="http://www.w3.org/2000/svg"
   xmlns:sodipodi="http://sodipodi.sourceforge.net/DTD/sodipodi-0.dtd"
   xmlns:inkscape="http://www.inkscape.org/namespaces/inkscape"
   width="304.75101"
   height="304.75104"
   viewBox="0 0 304.751 304.75103"
   version="1.1"
   id="svg15"
   sodipodi:docname="riot.src.svg"
   inkscape:version="0.92.4 (unknown)"
   inkscape:export-filename="riot.hicolor.256x256.png"
   inkscape:export-xdpi="80.639999"
   inkscape:export-ydpi="80.639999">
  <metadata
     id="metadata21">
    <rdf:RDF>
      <cc:Work
         rdf:about="">
        <dc:format>image/svg+xml</dc:format>
        <dc:type
           rdf:resource="http://purl.org/dc/dcmitype/StillImage" />
        <dc:title>animatedLogo-0</dc:title>
      </cc:Work>
    </rdf:RDF>
  </metadata>
  <defs
     id="defs19" />
  <sodipodi:namedview
     pagecolor="#ffffff"
     bordercolor="#666666"
     borderopacity="1"
     objecttolerance="10"
     gridtolerance="10"
     guidetolerance="10"
     inkscape:pageopacity="0"
     inkscape:pageshadow="2"
     inkscape:window-width="2048"
     inkscape:window-height="1081"
     id="namedview17"
     showgrid="false"
     fit-margin-top="0"
     fit-margin-left="0"
     fit-margin-right="0"
     fit-margin-bottom="0"
     inkscape:zoom="2.1232461"
     inkscape:cx="78.21797"
     inkscape:cy="143.44437"
     inkscape:window-x="0"
     inkscape:window-y="34"
     inkscape:window-maximized="1"
     inkscape:current-layer="g884" />
  <!-- Generator: Sketch 52.6 (67491) - http://www.bohemiancoding.com/sketch -->
  <title
     id="title2">animatedLogo-0</title>
  <desc
     id="desc4">Created with Sketch.</desc>
  <g
     inkscape:groupmode="layer"
     id="layer1"
     inkscape:label="frame, square"
     style="display:none"
     transform="translate(6.3415048,6.3415062)"
     sodipodi:insensitive="true">
    <rect
       style="opacity:1;fill:#ffc1c1;fill-opacity:0.5046729;stroke:#ff0202;stroke-width:5.47770834;stroke-linecap:round;stroke-miterlimit:4;stroke-dasharray:none;stroke-opacity:1"
       id="rect865"
       width="299.27328"
       height="299.27332"
       x="-3.6026506"
       y="-3.6026521"
       ry="0" />
  </g>
  <g
     inkscape:groupmode="layer"
     id="layer2"
     inkscape:label="riot.im"
     sodipodi:insensitive="true"
     style="display:none"
     transform="translate(6.3415048,6.3415062)">
    <path
       style="fill:#368bd6;fill-rule:evenodd;stroke:none;stroke-width:1"
       inkscape:connector-curvature="0"
       id="path10"
       d="m 323.3511,69.28741 c -1.84061,0 -3.27219,-1.388088 -3.27219,-3.172772 0,-1.784684 1.43158,-3.172772 3.27219,-3.172772 h 33.53984 c 1.84061,0 3.27219,1.388088 3.27219,3.172772 0,1.784684 -1.43158,3.172772 -3.27219,3.172772 z m 0,-58.299686 c -1.84061,0 -3.27219,-1.3880878 -2.86316,-3.5693688 0,-1.7846843 1.43158,-3.1727721 3.27218,-3.1727721 h 13.29323 20.04211 c 0.61353,0 1.22706,0.1982983 1.8406,0.5948948 0.81804,0.5948948 1.43158,1.586386 1.43158,2.7761755 V 21.894128 c 0,7.138737 -6.13534,13.087684 -13.49775,13.087684 -5.31729,0 -9.81654,-2.776175 -12.06616,-7.138737 l -9.40752,6.345544 c -1.63609,0.991491 -3.68121,0.594895 -4.70376,-0.793193 -1.02256,-1.586386 -0.61354,-3.569368 0.81804,-4.56086 l 11.86166,-7.93193 v -9.914912 z m 30.06315,11.104702 -0.20451,-11.104702 h -13.29323 v 11.104702 c 0,3.569368 3.06767,6.543842 6.74887,6.543842 3.6812,0 6.74887,-2.974474 6.74887,-6.543842 z m 3.47669,132.463234 c 1.84061,0 3.27219,1.38809 3.27219,3.17277 v 12.88939 13.08768 c 0,1.78469 -1.43158,3.17277 -3.27219,3.17277 -1.8406,0 -3.27218,-1.38808 -3.27218,-3.17277 v -9.91491 h -30.06315 c -1.84061,0 -3.27218,-1.38809 -3.27218,-3.17277 0,-1.78469 1.43157,-3.17277 3.27218,-3.17277 h 30.06315 v -9.71662 c 0,-1.78468 1.43158,-3.17277 3.27218,-3.17277 z M 340.12102,96.652569 c 11.24812,0 20.45113,8.923421 20.45113,19.829821 0,10.90641 -9.20301,19.82983 -20.45113,19.82983 -11.24812,0 -20.45113,-8.92342 -20.45113,-19.82983 0,-10.9064 9.20301,-19.829821 20.45113,-19.829821 z m 0,33.115811 c 7.56692,0 13.70225,-5.94895 13.70225,-13.28599 0,-7.33703 -6.13533,-13.28598 -13.70225,-13.28598 -7.56692,0 -13.70226,5.94895 -13.70226,13.28598 0,7.33704 6.13534,13.28599 13.70226,13.28599 z m 19.01955,90.8206 c 0.61353,0.59489 0.81804,1.38808 0.81804,2.18128 0,0.99149 -0.20451,1.58638 -0.81804,2.18128 -0.81805,0.59489 -1.63609,0.79319 -2.24963,0.79319 h -33.74436 c -1.02255,0 -1.63609,0 -2.24962,-0.79319 -0.61353,-0.79319 -0.81805,-1.38809 -0.81805,-2.18128 0,-0.99149 0.20452,-1.58639 0.81805,-2.18128 0.81804,-0.5949 1.43158,-0.7932 2.24962,-0.7932 h 33.74436 c 1.02256,0 1.63609,0.1983 2.24963,0.7932 z m 0.81804,36.28858 c 0,1.18979 -0.61353,2.18128 -1.43158,2.77617 l -18.81503,12.0962 18.81503,12.09619 c 1.22707,0.59489 1.43158,1.78468 1.43158,2.77618 v 0.39659 c 0,0.99149 0,1.58639 -0.81804,2.18128 -0.81805,0.5949 -1.43158,0.7932 -2.24963,0.7932 H 323.3511 c -1.02256,0 -1.6361,0 -2.24963,-0.7932 -0.61353,-0.79319 -0.81804,-1.18979 -0.81804,-2.18128 0,-0.99149 0.20451,-1.58638 0.81804,-2.18128 0.81805,-0.59489 1.63609,-0.79319 2.24963,-0.79319 h 24.74586 l -14.92932,-9.91491 c -0.81805,-0.5949 -1.43158,-1.58639 -1.43158,-2.57788 0,-0.99149 0.40902,-1.78469 1.22707,-2.57788 l 14.92932,-9.71661 h -24.74587 c -1.02255,0 -1.63609,0 -2.24962,-0.7932 -0.61353,-0.79319 -0.81805,-1.18979 -0.81805,-2.18128 0,-0.99149 0.20452,-1.58638 0.81805,-2.18128 0.81804,-0.59489 1.63609,-0.59489 2.24962,-0.59489 h 33.74436 c 1.02256,0 1.63609,0.1983 2.24963,0.79319 0.61353,0.59489 0.81804,1.38809 0.81804,2.18128 z M 337.8714,198.97447 c 0.61353,0 1.22706,0.1983 1.8406,0.79319 0.40902,0.3966 0.81804,0.99149 0.81804,1.78468 0,0.5949 -0.20451,1.18979 -0.81804,1.78469 -0.40903,0.3966 -1.02256,0.79319 -1.8406,0.79319 h -1.02256 c -0.61353,0 -1.22707,-0.1983 -1.8406,-0.79319 -0.40903,-0.3966 -0.81805,-0.99149 -0.81805,-1.78469 0,-0.79319 0.20451,-1.38808 0.81805,-1.78468 0.40902,-0.3966 1.02255,-0.79319 1.8406,-0.79319 z" />
  </g>
  <g
     inkscape:groupmode="layer"
     id="layer3"
     inkscape:label="logo, hicolor"
     sodipodi:insensitive="true"
     style="display:inline"
     transform="translate(6.3415048,6.3415062)">
    <path
       style="fill:#a2ddef;fill-rule:evenodd;stroke:none;stroke-width:1"
       inkscape:connector-curvature="0"
       id="Fill-1"
       d="m 114.59015,84.649419 v 41.253721 l 41.9579,-0.0431 c 0.53283,0 1.019,-0.0144 1.50271,-0.0455 11.03212,-0.72602 19.65549,-9.75693 19.65549,-20.55857 0,-11.364718 -9.47049,-20.606491 -21.11645,-20.606491 z M 73.093858,288.4093 c -22.916263,0 -41.496288,-18.12892 -41.496288,-40.49415 v -77.17611 c -0.149779,-1.39933 -0.230808,-2.82262 -0.230808,-4.26267 -0.0025,-1.46642 0.07612,-2.91367 0.230808,-4.34174 V 44.155263 c 0,-22.365234 18.580025,-40.4965518 41.496288,-40.4965518 H 156.5898 c 57.40729,0 104.11148,45.5762918 104.11148,101.5971988 0,53.263 -42.63068,97.785 -97.05221,101.35999 -2.31298,0.15575 -4.69718,0.23482 -7.05927,0.23482 l -41.99965,0.0407 v 41.0237 c 0,22.36523 -18.577572,40.49415 -41.496292,40.49415 z" />
    <path
       style="fill:none;fill-rule:evenodd;stroke:#368bd6;stroke-width:7.31760454"
       inkscape:connector-curvature="0"
       id="Stroke-3"
       d="m 114.59015,84.649419 v 41.253721 l 41.9579,-0.0431 c 0.53283,0 1.019,-0.0144 1.50271,-0.0455 11.03212,-0.72602 19.65549,-9.75693 19.65549,-20.55857 0,-11.364718 -9.47049,-20.606491 -21.11645,-20.606491 z M 73.093858,288.4093 c -22.916263,0 -41.496288,-18.12892 -41.496288,-40.49415 v -77.17611 c -0.149779,-1.39933 -0.230808,-2.82262 -0.230808,-4.26267 -0.0025,-1.46642 0.07612,-2.91367 0.230808,-4.34174 V 44.155263 c 0,-22.365234 18.580025,-40.4965518 41.496288,-40.4965518 H 156.5898 c 57.40729,0 104.11148,45.5762918 104.11148,101.5971988 0,53.263 -42.63068,97.785 -97.05221,101.35999 -2.31298,0.15575 -4.69718,0.23482 -7.05927,0.23482 l -41.99965,0.0407 v 41.0237 c 0,22.36523 -18.577572,40.49415 -41.496292,40.49415 z" />
    <path
       style="fill:none;fill-rule:evenodd;stroke:#368bd6;stroke-width:7.31760454;stroke-linecap:round"
       inkscape:connector-curvature="0"
       id="Stroke-5"
       d="M 73.094104,247.91443 V 44.154544 h 83.495936 c 34.57942,0 62.61274,27.356318 62.61274,61.100646 0,32.34501 -25.75471,58.81956 -58.34034,60.95928 -1.41431,0.0934 -2.83599,0.14137 -4.2724,0.14137 l -83.726744,0.0815" />
    <path
       style="fill:#368bd6;fill-rule:evenodd;stroke:none;stroke-width:1"
       inkscape:connector-curvature="0"
       id="Combined-Shape"
       d="m 107.28754,20.930307 c 6.36194,8.858396 8.80507,19.607318 6.88003,30.253208 -1.92749,10.653078 -7.99233,19.933188 -17.077317,26.136701 C 78.33344,90.127391 52.387211,85.668242 39.253267,67.378781 32.891321,58.520385 30.448197,47.773859 32.375687,37.123177 34.300722,26.472495 40.365564,17.189989 49.453006,10.988872 68.209819,-1.8183031 94.153593,2.6408463 107.28754,20.930307 Z M 219.54433,288.38606 c -13.07747,0 -25.94378,-6.01422 -34.01959,-17.25914 l -58.64727,-81.67359 c -13.15113,-18.31582 -8.59636,-43.56836 10.17027,-56.3995 18.76664,-12.84072 44.64412,-8.39355 57.79525,9.92227 l 58.64727,81.6736 c 13.15358,18.31581 8.59881,43.56835 -10.16782,56.39949 -7.24835,4.95754 -15.55497,7.33687 -23.77811,7.33687 z" />
  </g>
  <g
     inkscape:label="logo, highcontrast"
     id="g884"
     inkscape:groupmode="layer"
     style="display:none"
     transform="translate(6.3415048,6.3415062)"
     sodipodi:insensitive="true">
    <path
       d="m 114.59014,84.649419 v 41.253721 l 41.9579,-0.0431 c 0.53283,0 1.019,-0.0144 1.50271,-0.0455 11.03212,-0.72602 19.65549,-9.75693 19.65549,-20.55857 0,-11.364718 -9.47049,-20.606491 -21.11645,-20.606491 z M 73.093851,288.4093 c -22.91626,0 -41.49629,-18.12892 -41.49629,-40.49415 v -77.17611 c -0.14978,-1.39933 -0.23081,-2.82262 -0.23081,-4.26267 -0.002,-1.46642 0.0761,-2.91367 0.23081,-4.34174 V 44.155262 c 0,-22.365231 18.58003,-40.4965509 41.49629,-40.4965509 h 83.495939 c 57.40729,0 104.11148,45.5762909 104.11148,101.5971989 0,53.263 -42.63068,97.785 -97.05221,101.35999 -2.31298,0.15575 -4.69718,0.23482 -7.05927,0.23482 l -41.99965,0.0407 v 41.0237 c 0,22.36523 -18.577569,40.49415 -41.496289,40.49415 z"
       id="path878-1"
       inkscape:connector-curvature="0"
       style="display:inline;fill:none;fill-rule:evenodd;stroke:#ffffff;stroke-width:20;stroke-miterlimit:4;stroke-dasharray:none;stroke-opacity:1" />
    <path
       d="m 107.32088,20.928707 c 6.36194,8.858396 8.80507,19.607318 6.88003,30.253208 -1.92749,10.653078 -7.99233,19.933188 -17.077305,26.136701 -18.75682,12.807175 -44.70304,8.348026 -57.83699,-9.941435 -6.36194,-8.858396 -8.80507,-19.604922 -6.87758,-30.255604 1.92504,-10.650682 7.98988,-19.933188 17.07732,-26.134305 18.75681,-12.8071704 44.70059,-8.3480304 57.834525,9.941435 z m 112.2568,267.455743 c -13.07747,0 -25.94378,-6.01422 -34.01959,-17.25914 l -58.64728,-81.67358 c -13.15113,-18.31582 -8.59636,-43.56836 10.17028,-56.3995 18.76664,-12.84072 44.64412,-8.39355 57.79525,9.92227 l 58.64727,81.67359 c 13.15358,18.31581 8.59881,43.56835 -10.16782,56.39949 -7.24835,4.95754 -15.55497,7.33687 -23.77811,7.33687 z"
       id="path882-7"
       inkscape:connector-curvature="0"
       style="display:inline;fill:#368bd6;fill-rule:evenodd;stroke:#ffffff;stroke-width:20;stroke-miterlimit:4;stroke-dasharray:none;stroke-opacity:1" />
    <path
       d="m 114.59015,84.649419 v 41.253721 l 41.9579,-0.0431 c 0.53283,0 1.019,-0.0144 1.50271,-0.0455 11.03212,-0.72602 19.65549,-9.75693 19.65549,-20.55857 0,-11.364718 -9.47049,-20.606491 -21.11645,-20.606491 z M 73.093858,288.4093 c -22.916263,0 -41.496288,-18.12892 -41.496288,-40.49415 v -77.17611 c -0.149779,-1.39933 -0.230808,-2.82262 -0.230808,-4.26267 -0.0025,-1.46642 0.07612,-2.91367 0.230808,-4.34174 V 44.155263 c 0,-22.365234 18.580025,-40.4965518 41.496288,-40.4965518 H 156.5898 c 57.40729,0 104.11148,45.5762918 104.11148,101.5971988 0,53.263 -42.63068,97.785 -97.05221,101.35999 -2.31298,0.15575 -4.69718,0.23482 -7.05927,0.23482 l -41.99965,0.0407 v 41.0237 c 0,22.36523 -18.577572,40.49415 -41.496292,40.49415 z"
       id="path876"
       inkscape:connector-curvature="0"
       style="fill:#a2ddef;fill-rule:evenodd;stroke:none;stroke-width:1" />
    <path
       d="m 114.59015,84.649419 v 41.253721 l 41.9579,-0.0431 c 0.53283,0 1.019,-0.0144 1.50271,-0.0455 11.03212,-0.72602 19.65549,-9.75693 19.65549,-20.55857 0,-11.364718 -9.47049,-20.606491 -21.11645,-20.606491 z M 73.093858,288.4093 c -22.916263,0 -41.496288,-18.12892 -41.496288,-40.49415 v -77.17611 c -0.149779,-1.39933 -0.230808,-2.82262 -0.230808,-4.26267 -0.0025,-1.46642 0.07612,-2.91367 0.230808,-4.34174 V 44.155263 c 0,-22.365234 18.580025,-40.4965518 41.496288,-40.4965518 H 156.5898 c 57.40729,0 104.11148,45.5762918 104.11148,101.5971988 0,53.263 -42.63068,97.785 -97.05221,101.35999 -2.31298,0.15575 -4.69718,0.23482 -7.05927,0.23482 l -41.99965,0.0407 v 41.0237 c 0,22.36523 -18.577572,40.49415 -41.496292,40.49415 z"
       id="path878"
       inkscape:connector-curvature="0"
       style="fill:none;fill-rule:evenodd;stroke:#000000;stroke-width:7.31799984;stroke-miterlimit:4;stroke-dasharray:none;stroke-opacity:1" />
    <path
       d="M 73.094104,247.91443 V 44.154544 h 83.495936 c 34.57942,0 62.61274,27.356318 62.61274,61.100646 0,32.34501 -25.75471,58.81956 -58.34034,60.95928 -1.41431,0.0934 -2.83599,0.14137 -4.2724,0.14137 l -83.726744,0.0815"
       id="path880"
       inkscape:connector-curvature="0"
       style="fill:none;fill-rule:evenodd;stroke:#000000;stroke-width:7.31760454;stroke-linecap:round;stroke-opacity:1" />
    <path
       d="m 107.28754,20.930307 c 6.36194,8.858396 8.80507,19.607318 6.88003,30.253208 -1.92749,10.653078 -7.99233,19.933188 -17.077317,26.136701 C 78.33344,90.127391 52.387211,85.668242 39.253267,67.378781 32.891321,58.520385 30.448197,47.773859 32.375687,37.123177 34.300722,26.472495 40.365564,17.189989 49.453006,10.988872 68.209819,-1.8183031 94.153593,2.6408463 107.28754,20.930307 Z M 219.54433,288.38606 c -13.07747,0 -25.94378,-6.01422 -34.01959,-17.25914 l -58.64727,-81.67359 c -13.15113,-18.31582 -8.59636,-43.56836 10.17027,-56.3995 18.76664,-12.84072 44.64412,-8.39355 57.79525,9.92227 l 58.64727,81.6736 c 13.15358,18.31581 8.59881,43.56835 -10.16782,56.39949 -7.24835,4.95754 -15.55497,7.33687 -23.77811,7.33687 z"
       id="path882"
       inkscape:connector-curvature="0"
       style="fill:#368bd6;fill-rule:evenodd;stroke:#000000;stroke-width:7.31799984;stroke-miterlimit:4;stroke-dasharray:none;stroke-opacity:1" />
  </g>
</svg>
